<svg xmlns="http://www.w3.org/2000/svg" viewBox="0 0 64 64" fill="none">
  <defs>
    <linearGradient id="leafia-moon" x1="13" y1="13" x2="47" y2="54" gradientUnits="userSpaceOnUse">
      <stop stop-color="#7773B9"/>
      <stop offset="1" stop-color="#B9ACE8"/>
    </linearGradient>
    <linearGradient id="leafia-page-left" x1="13" y1="27" x2="32" y2="50" gradientUnits="userSpaceOnUse">
      <stop stop-color="#C8BDE7"/>
      <stop offset="1" stop-color="#E8C9D8"/>
    </linearGradient>
    <linearGradient id="leafia-page-right" x1="32" y1="27" x2="51" y2="50" gradientUnits="userSpaceOnUse">
      <stop stop-color="#9F98D4"/>
      <stop offset="1" stop-color="#D7C6E5"/>
    </linearGradient>
    <linearGradient id="leafia-star" x1="42" y1="5" x2="50" y2="15" gradientUnits="userSpaceOnUse">
      <stop stop-color="#6965B4"/>
      <stop offset="1" stop-color="#B9ACE8"/>
    </linearGradient>
    <mask id="leafia-crescent-mask" maskUnits="userSpaceOnUse" x="7" y="9" width="46" height="46">
      <rect x="7" y="9" width="46" height="46" fill="white"/>
      <circle cx="38.5" cy="32" r="22.5" fill="black"/>
    </mask>
  </defs>

  <circle
    cx="30"
    cy="32"
    r="22.5"
    fill="url(#leafia-moon)"
    mask="url(#leafia-crescent-mask)"
  />

  <path
    d="M31.5 30.2C29.9 24.5 30.7 18.8 34.2 14.2C39.1 18.8 40.6 24.3 37.1 30.2"
    stroke="url(#leafia-moon)"
    stroke-width="2.4"
    stroke-linecap="round"
    stroke-linejoin="round"
  />

  <path
    d="M31.5 29.6C26.2 25.1 20.1 23.4 14.3 24.4V46.6C20.4 46 26.4 47.8 31.5 51.8V29.6Z"
    fill="url(#leafia-page-left)"
    stroke="#F7F3FC"
    stroke-width="1.1"
    stroke-linejoin="round"
  />
  <path
    d="M31.5 29.6C36.8 25.1 42.9 23.4 48.7 24.4V46.6C42.6 46 36.6 47.8 31.5 51.8V29.6Z"
    fill="url(#leafia-page-right)"
    stroke="#F7F3FC"
    stroke-width="1.1"
    stroke-linejoin="round"
  />
  <path
    d="M31.5 29.2V52.6"
    stroke="#716CB4"
    stroke-width="1.35"
    stroke-linecap="round"
  />

  <path
    d="M47.5 5.1L48.9 8.7L52.5 10.1L48.9 11.5L47.5 15.1L46.1 11.5L42.5 10.1L46.1 8.7L47.5 5.1Z"
    fill="url(#leafia-star)"
  />
</svg>
